<svg width="23" height="21" viewBox="0 0 23 21" fill="none" xmlns="http://www.w3.org/2000/svg">
<path fill-rule="evenodd" clip-rule="evenodd" d="M0.811059 0.0766323L0.610147 0.14625L0.379995 0.372353L0.149842 0.598412L0.0749209 0.819971L0 1.04149L0.0119029 6.62003L0.0238058 12.1985L0.157028 12.4348L0.290296 12.6711L0.448986 12.7997L0.607722 12.9283L0.845241 13.0156L1.08271 13.1029H1.59759H2.11243V14.7067V16.3105L2.21421 16.4588L2.31599 16.6072L2.48178 16.6691L2.64756 16.7311L2.79547 16.7031L2.94339 16.6751L5.38222 14.889L7.82106 13.1029H12.6683H17.5155L17.7552 13.0148L17.9949 12.9267L18.1824 12.7444L18.3699 12.5621L18.4721 12.3582L18.5744 12.1544V6.55147V0.948529L18.4481 0.696L18.3218 0.443471L18.1397 0.290294L17.9575 0.137162L17.7526 0.0685589L17.5478 0L9.27986 0.00348532L1.01197 0.00697063L0.811059 0.0766323ZM15.3487 3.2625L15.4918 3.34822L15.5425 3.44113L15.5931 3.53404L15.5954 3.70054L15.5978 3.86704L15.5222 4.01051L15.4467 4.15403L15.2939 4.21672L15.1411 4.27941H9.29608H3.45103L3.30752 4.21253L3.16402 4.14565L3.08739 4.01824L3.01076 3.89078V3.72997V3.56916L3.07872 3.44012L3.14663 3.31107L3.26961 3.24551L3.39255 3.18L9.29909 3.17841L15.2056 3.17678L15.3487 3.2625ZM19.7096 8.32721L19.6973 12.375L19.5949 12.6397L19.4925 12.9044L19.3336 13.1399L19.1746 13.3754L18.9471 13.5885L18.7197 13.8015L18.4446 13.9387L18.1694 14.0759L17.9227 14.1404L17.676 14.2048L12.9568 14.2054L8.23753 14.2059L7.12885 15.0101L6.02017 15.8143L6.02116 16.1241L6.02215 16.4338L6.11346 16.6324L6.20473 16.8309L6.37075 17.0001L6.53671 17.1692L6.71638 17.2648L6.89605 17.3603L11.0508 17.3824L15.2056 17.4044L17.5888 19.152L19.9721 20.8996L20.0675 20.9498L20.163 21H20.3029H20.4429L20.5774 20.9317L20.7119 20.8634L20.7995 20.7221L20.8873 20.5809L20.8874 18.9816L20.8876 17.3824H21.4186H21.9496L22.1544 17.3138L22.3594 17.2452L22.5344 17.098L22.7096 16.9508L22.8429 16.7144L22.9762 16.4779L22.9881 10.8691L23 5.26024L22.853 4.98141L22.7061 4.70254L22.5135 4.55828L22.3209 4.41401L22.0902 4.34674L21.8594 4.27941H20.7907H19.722L19.7096 8.32721ZM15.3487 6.08603L15.4918 6.17175L15.5425 6.26466L15.5931 6.35757L15.5954 6.52407L15.5978 6.69057L15.5222 6.83404L15.4467 6.97756L15.2939 7.04025L15.1411 7.10294H9.29608H3.45103L3.30752 7.03606L3.16402 6.96918L3.08739 6.84176L3.01076 6.71431V6.5535V6.39269L3.07872 6.26365L3.14663 6.1346L3.26961 6.06904L3.39255 6.00353L9.29909 6.00194L15.2056 6.00031L15.3487 6.08603ZM15.3487 8.90956L15.4918 8.99528L15.5425 9.08819L15.5931 9.1811L15.5954 9.3476L15.5978 9.5141L15.5222 9.65757L15.4467 9.80109L15.2927 9.86426L15.1388 9.92744L9.22852 9.91593L3.31826 9.90441L3.16451 9.73963L3.01076 9.57481V9.39551V9.21622L3.07872 9.08718L3.14663 8.95813L3.26961 8.89257L3.39255 8.82706L9.29909 8.82547L15.2056 8.82384L15.3487 8.90956Z" fill="white"/>
</svg>
