<svg width="33" height="31" viewBox="0 0 33 31" fill="none" xmlns="http://www.w3.org/2000/svg">
<path fill-rule="evenodd" clip-rule="evenodd" d="M2.038 0.0610001C0.912444 0.0610001 0 0.973444 0 2.099V12.515V22.93C0 24.0732 0.92677 25 2.07 25H3.85895H11.4741H19.0903L23.439 28L27.7876 31H28.3562H28.9247V28.035V25.07L30.8446 25.0363C31.9935 25.0162 32.9143 24.0791 32.9143 22.93V12.5V2.07C32.9143 0.955361 32.02 0.0468643 30.9055 0.029247L29.0553 0L16.2736 0.03L3.49091 0.0610001H2.038ZM23.9377 8V9H16.4571H8.97662V8V7H16.4571H23.9377V8ZM23.9377 13V14H16.4571H8.97662V13V12H16.4571H23.9377V13ZM23.9377 17V18H16.4571H8.97662V17V16H16.4571H23.9377V17Z" fill="white"/>
</svg>
