<svg width="62" height="62" viewBox="0 0 62 62" fill="none" xmlns="http://www.w3.org/2000/svg">
<path d="M48.2212 17.4739C48.0039 17.4436 47.7866 17.4436 47.5693 17.4739C42.7574 17.3225 38.939 13.4764 38.939 8.75208C38.939 3.93692 42.9437 0 47.9107 0C52.8468 0 56.8825 3.90664 56.8825 8.75208C56.8515 13.4764 53.033 17.3225 48.2212 17.4739Z" fill="white"/>
<path d="M58.3483 38.463C54.8714 40.7343 49.9974 41.5823 45.496 41.0069C46.6757 38.5236 47.2966 35.7677 47.3276 32.8605C47.3276 29.8321 46.6447 26.9551 45.3408 24.4415C49.9354 23.8358 54.8093 24.6838 58.3173 26.9551C63.2223 30.1046 63.2223 35.2832 58.3483 38.463Z" fill="white"/>
<path d="M13.7968 17.4739C14.0141 17.4436 14.2314 17.4436 14.4487 17.4739C19.2606 17.3225 23.079 13.4764 23.079 8.75208C23.079 3.90664 19.0743 0 14.1072 0C9.17121 0 5.1665 3.90664 5.1665 8.75208C5.1665 13.4764 8.98494 17.3225 13.7968 17.4739Z" fill="white"/>
<path d="M14.1406 32.861C14.1406 35.7986 14.7926 38.5847 15.9722 41.0983C11.595 41.5526 7.03151 40.644 3.67874 38.4939C-1.22625 35.3141 -1.22625 30.1355 3.67874 26.9557C7.00047 24.7752 11.6881 23.8969 16.0964 24.3815C14.8236 26.9254 14.1406 29.8024 14.1406 32.861Z" fill="white"/>
<path d="M31.431 42.0043C31.1826 41.9741 30.9032 41.9741 30.6238 42.0043C24.9117 41.8226 20.3481 37.2498 20.3481 31.6169C20.3792 25.863 25.129 21.1992 31.0585 21.1992C36.9568 21.1992 41.7377 25.863 41.7377 31.6169C41.7066 37.2498 37.1742 41.8226 31.431 42.0043Z" fill="white"/>
<path d="M21.3409 48.2731C16.6533 51.3318 16.6533 56.359 21.3409 59.3874C26.6806 62.87 35.4351 62.87 40.7747 59.3874C45.4624 56.3287 45.4624 51.3015 40.7747 48.2731C35.4661 44.7905 26.7117 44.7905 21.3409 48.2731Z" fill="white"/>
</svg>
