<svg width="32" height="38" viewBox="0 0 32 38" fill="none" xmlns="http://www.w3.org/2000/svg">
<path d="M31.2631 23.7308L29.183 20.5769C28.7461 19.8739 28.3509 18.5439 28.3509 17.7649V12.9579C28.3509 8.49294 25.4803 4.63597 21.3409 2.83098C20.2592 1.08299 18.2623 0 15.9741 0C13.7068 0 11.6683 1.12099 10.5866 2.88798C6.53037 4.73097 3.72219 8.54994 3.72219 12.9579V17.7649C3.72219 18.5439 3.32696 19.8739 2.89013 20.5579L0.789195 23.7308C-0.0428596 25.0038 -0.230071 26.4098 0.289963 27.7018C0.789195 28.9748 1.97487 29.9628 3.51417 30.4378C7.54964 31.6918 11.7931 32.2998 16.0365 32.2998C20.28 32.2998 24.5235 31.6918 28.5589 30.4568C30.015 30.0198 31.1383 29.0128 31.6791 27.7018C32.22 26.3908 32.0744 24.9468 31.2631 23.7308Z" fill="white"/>
<path d="M21.8813 34.2192C21.0076 36.4232 18.6987 38.0002 15.9945 38.0002C14.3512 38.0002 12.7287 37.3922 11.5846 36.3092C10.9189 35.7392 10.4197 34.9792 10.1285 34.2002C10.3989 34.2382 10.6693 34.2572 10.9605 34.2952C11.439 34.3522 11.9382 34.4092 12.4374 34.4472C13.6231 34.5422 14.8296 34.5992 16.0361 34.5992C17.2218 34.5992 18.4074 34.5422 19.5723 34.4472C20.0091 34.4092 20.446 34.3902 20.862 34.3332C21.1948 34.2952 21.5276 34.2572 21.8813 34.2192Z" fill="white"/>
</svg>
