<svg width="23" height="21" viewBox="0 0 23 21" fill="none" xmlns="http://www.w3.org/2000/svg">
<path fill-rule="evenodd" clip-rule="evenodd" d="M8.88888 0.049896L8.66289 0.0882475L5.27306 1.07707L1.88324 2.06594L1.5317 2.24317L1.18016 2.42044L0.853232 2.7389L0.526302 3.05735L0.339887 3.40428L0.153521 3.7512L0.0767356 4.03825L0 4.3253V10.5173V16.7093L0.0767356 16.9963L0.153521 17.2834L0.339887 17.6303L0.526302 17.9772L0.853232 18.2957L1.18016 18.6141L1.5317 18.7915L1.88324 18.9687L5.34839 19.9841L8.81355 20.9995L9.36597 20.9997L9.91838 21L10.2937 20.8717L10.6691 20.7434L11.0104 20.5162L11.3518 20.289L11.5526 20.0667L11.7535 19.8445L11.9113 19.5757L12.0693 19.3069L12.1778 18.96L12.2864 18.6132L12.9856 18.5852L13.6849 18.5572L13.9773 18.4458L14.2698 18.3344L14.5774 18.1069L14.8849 17.8794L15.1001 17.5717L15.3154 17.264L15.4041 16.9846L15.4928 16.7054V10.5173V4.32921L15.4041 4.04994L15.3154 3.77062L15.1001 3.46293L14.8849 3.15519L14.5774 2.92772L14.2698 2.7002L13.9773 2.58877L13.6849 2.47734L12.9895 2.4494L12.2941 2.42142L12.1819 2.07646L12.0698 1.73149L11.9232 1.46499L11.7765 1.19848L11.425 0.854934L11.0734 0.511385L10.6968 0.332346L10.3201 0.153308L9.93305 0.076654L9.54595 0L9.33041 0.00577228L9.11487 0.0114957L8.88888 0.049896ZM13.5096 4.12131L13.6756 4.23138L13.7807 4.36947L13.8857 4.50761V10.5173V16.527L13.7807 16.6651L13.6756 16.8032L13.5096 16.9133L13.3436 17.0233H12.8237H12.3038V10.5173V4.01125H12.8237H13.3436L13.5096 4.12131ZM19.648 7.23957L19.4843 7.33677L19.3845 7.49619L19.2847 7.65561L19.2845 7.90558L19.2843 8.1556L19.411 8.33733L19.5376 8.5191L20.0389 9.12475L20.5403 9.73035L19.0873 9.74474L17.6343 9.75907L17.4957 9.85994L17.3571 9.9608L17.2536 10.0959L17.15 10.231V10.5173V10.8036L17.2536 10.9387L17.3571 11.0738L17.4957 11.1746L17.6343 11.2755L19.0873 11.2898L20.5403 11.3042L20.0389 11.9098L19.5376 12.5155L19.411 12.6973L19.2843 12.879L19.2845 13.129L19.2847 13.379L19.3845 13.5384L19.4843 13.6978L19.648 13.795L19.8117 13.8923H20.0628H20.3139L20.4741 13.7971L20.6343 13.7019L21.7489 12.3472L22.8634 10.9924L22.9317 10.8649L23 10.7374V10.5173V10.2972L22.9317 10.1697L22.8634 10.0422L21.7489 8.68743L20.6343 7.33266L20.4741 7.23751L20.3139 7.14232H20.0628H19.8117L19.648 7.23957Z" fill="white"/>
</svg>
