<svg width="16" height="18" viewBox="0 0 16 18" fill="none" xmlns="http://www.w3.org/2000/svg">
<path d="M12.4444 8C12.1407 8 11.8889 7.71368 11.8889 7.36842V5.68421C11.8889 3.03158 11.2296 1.26316 8 1.26316C4.77037 1.26316 4.11111 3.03158 4.11111 5.68421V7.36842C4.11111 7.71368 3.85926 8 3.55556 8C3.25185 8 3 7.71368 3 7.36842V5.68421C3 3.24211 3.51852 0 8 0C12.4815 0 13 3.24211 13 5.68421V7.36842C13 7.71368 12.7481 8 12.4444 8Z" fill="white"/>
<path d="M11.7209 18H4.27907C0.99721 18 0 16.9081 0 13.3148V11.6852C0 8.09185 0.99721 7 4.27907 7H11.7209C15.0028 7 16 8.09185 16 11.6852V13.3148C16 16.9081 15.0028 18 11.7209 18Z" fill="white"/>
</svg>
