<svg width="24" height="24" viewBox="0 0 24 24" fill="none" xmlns="http://www.w3.org/2000/svg">
<path d="M11.443 22.883C5.13539 22.883 0 17.7483 0 11.4415C0 5.13473 5.13539 0 11.443 0C17.7506 0 22.886 5.13473 22.886 11.4415C22.886 17.7483 17.7506 22.883 11.443 22.883ZM11.443 1.67437C6.05082 1.67437 1.67458 6.06121 1.67458 11.4415C1.67458 16.8218 6.05082 21.2087 11.443 21.2087C16.8351 21.2087 21.2114 16.8218 21.2114 11.4415C21.2114 6.06121 16.8351 1.67437 11.443 1.67437Z" fill="white"/>
<path d="M23.1655 23.9998C22.9534 23.9998 22.7413 23.9216 22.5738 23.7542L20.341 21.5217C20.0173 21.198 20.0173 20.6622 20.341 20.3385C20.6648 20.0148 21.2007 20.0148 21.5244 20.3385L23.7572 22.571C24.0809 22.8947 24.0809 23.4305 23.7572 23.7542C23.5897 23.9216 23.3776 23.9998 23.1655 23.9998Z" fill="white"/>
</svg>
